<svg width="605" height="563.295" xmlns="http://www.w3.org/2000/svg" xmlns:svg="http://www.w3.org/2000/svg">
 <g>
   <path d="m96.343,446.071c3.202,-13.085 7.949,-29.973 14.183,-45.381c3.28,-8.061 6.965,-15.709 11.177,-22.325l-1.102,0.109l-1.997,-0.087l-8.295,-1.3l-10.061,-0.921c-1.87,-0.242 -3.774,-0.265 -5.685,-0.259l-10.328,71.135l12.108,-0.971z" fill="#CCCCCC" />
   <path d="m121.847,197.848l-0.785,-1.404c-1.185,-2.161 -1.542,-4.6 -1.479,-7.29c-0.483,-3.363 2.402,-5.792 3.783,-8.732c1.798,-2.382 3.464,-3.904 5.199,-5.877l1.738,-1.939c2.385,-2.883 4.839,-5.722 6.847,-8.93l5.388,-8.104l3.769,-6.766l2.96,-4.96l0.521,-0.656l0.509,-0.086c-0.788,-6.508 -15.018,8.139 -21.324,13.239c-1.053,0.855 -1.939,1.367 -2.748,1.741c-0.633,2.333 -1.306,4.629 -2.172,6.755l-0.728,1.703l-1.836,3.34l-3.82,4.735l-2.578,2.776l-0.475,0.345l-0.636,0.443l-0.627,0.158l-0.386,-0.607l-0.055,-0.616l0.086,-0.854l0.967,-3.608l1.755,-4.361c0.826,-1.436 1.157,-3.047 1.507,-4.681c0.835,-2.379 1.525,-4.871 2.069,-7.463c-2.647,-0.15 -8.363,-0.898 -13.582,-4.456c-7.063,-4.819 -15.087,-17.345 -17.662,-11.562c-2.569,5.777 4.14,14.589 5.135,22.483c0.923,7.264 2.583,24.089 -4.174,32.435c-3.521,4.362 -5.334,8.504 -5.435,11.004l0.552,-0.339l3.766,-2.229l5.699,-3.482c2.08,-1.107 3.763,-2.83 5.67,-4.197l1.444,-1.168l2.422,-2.017l4.14,-3.308l2.848,-2.264l0.532,-0.268l0.719,-0.348l0.688,-0.069l0.319,0.719l-0.043,0.676l-0.236,0.909l-0.095,0.213c1.47,2.586 6.126,10.383 9.336,11.186c0.929,0.233 1.424,0.204 1.692,-0.124c-0.233,-0.288 -0.388,-1.295 -0.388,-1.295l-0.796,-0.8z" fill="#92C5EB" />
   <path d="m358.894,132.417c11.778,2.494 24.166,6.165 37.078,11.378l68.685,-109.557c-13.211,-5.866 -23.799,-9.261 -32.038,-11.194l-73.725,109.373z" fill="#A6A6A6" />
   <path d="m407.18,148.698c0.73,0.337 1.439,0.61 2.176,0.958c1.461,0.693 2.836,1.436 4.252,2.155c19.988,-30.821 52.262,-79.749 70.675,-107.615c-2.698,-1.625 -5.547,-3.219 -8.603,-4.758l-68.5,109.26z" fill="#A6A6A6" />
   <path d="m259.121,446.537l0,-18.044c-20.927,7.393 -34.995,17.923 -48.991,30.731c-8.168,7.497 -16.332,15.823 -25.602,24.534c2.146,3.855 4.586,7.544 7.103,11.186c15.82,-17.98 37.636,-35.329 67.49,-48.407z" fill="#C9252C" />
   <path d="m185.169,502.672c-2.897,-3.884 -5.693,-7.843 -8.274,-11.934c-8.993,8.027 -19.12,16.272 -31.413,24.472c-17.688,11.783 -33.188,14.54 -40.812,15.155l-0.161,0.075c-0.259,0.011 -0.521,0 -0.78,0.006c-1.234,0.08 -2.281,0.12 -2.966,0.12c-0.653,0 -1.044,-0.028 -1.151,-0.034l-0.812,-0.046c-2.612,-0.035 -5.23,-0.127 -7.865,-0.316l-1.583,-0.392l-3.312,-0.897l-5.175,-2.722l-3.038,-2.618l-0.342,-0.587l-0.412,-0.806l-0.058,-0.932l0.826,-0.967l0.734,-0.426l0.935,-0.34l3.596,-0.523l4.146,-0.121l4.157,0.018c0.256,0.018 0.518,0.018 0.774,0.04c-1.197,-5.575 -2.451,-13.987 -2.451,-25.138c0,-6.732 0.549,-14.541 1.758,-23.125c0.337,-2.417 0.668,-4.822 1.13,-7.371c0.282,-1.56 0.682,-3.228 1.016,-4.839l-0.135,0.012l-11.044,0.886l-29.417,2.365c-0.296,1.174 -0.656,2.601 -1.064,4.2c-0.604,2.364 -1.329,5.173 -2.155,8.337c-1.127,4.321 -2.442,9.299 -3.921,14.782c-0.02,0.068 -0.037,0.132 -0.054,0.207c-1.721,6.369 -3.651,13.378 -5.74,20.742c-4.888,17.204 -10.599,36.192 -16.485,53.339l130.832,0c2.503,-8.977 6.415,-20.099 12.584,-32.199c4.642,-9.118 10.586,-18.78 18.132,-28.423z" fill="#C9252C" />
   <path d="m475.461,470.692c-18.976,-24.8 -38.551,-37.183 -53.718,-43.506c-3.325,-1.381 -6.393,-2.428 -9.247,-3.285c0,6.134 0,10.8 0,13.291c1.02,1.416 2.475,3.637 4.08,6.605l1.801,0.852l3.567,2.192c4.972,3.671 9.851,7.538 14.437,11.778c5.386,5.316 10.449,11.024 14.989,17.222c4.477,6.214 8.429,12.9 11.6,20.023c9.298,20.736 10.04,46.583 -0.138,67.43l102.568,0c-33.045,-23.89 -61.503,-55.432 -89.939,-92.602z" fill="#C9252C" />
   <path d="m453.516,502.396l-2.681,-6.49c-2.009,-4.528 -4.391,-8.959 -7.037,-13.233c-4.073,-7.198 -9.011,-13.994 -14.351,-20.507c-2.917,-3.625 -5.984,-7.158 -9.2,-10.57c3.263,8.05 6.151,18.937 6.151,32.204c0,9.868 -1.605,21.02 -5.766,33.206c-4.96,14.488 -12.843,30.294 -22.74,46.29l52.665,0l1.542,-3.573c9.086,-17.844 8.672,-38.811 1.417,-57.327z" fill="#C9252C" />
   <path d="m485.064,463.344c-20.23,-26.474 -41.704,-40.282 -58.678,-47.325c-5.121,-2.123 -9.753,-3.591 -13.891,-4.672c0,-29.547 0,-73.633 0,-86.119c0.012,-3.959 0.225,-5.402 0.529,-6.697c0.254,-1.116 0.835,-2.722 1.571,-5.368c5.415,-6.273 7.337,-12.831 7.423,-17.946c0.84,0.062 1.715,0.098 2.629,0.104c5.541,0.011 12.566,-1.347 19.092,-6.14c5.018,-3.671 8.205,-7.745 10.023,-11.554c0.052,-0.104 0.074,-0.201 0.121,-0.306l44.955,26.445c0.908,0.541 2.054,0.553 2.986,0.046c0.92,-0.512 1.524,-1.478 1.57,-2.537c0,-0.04 0.023,-0.685 0.023,-1.87c-0.012,-7.123 -0.875,-33.66 -13.039,-63.952c-4.701,-11.703 -11.145,-23.971 -19.861,-35.861l66.733,-103.809c0.858,-1.338 1.169,-2.975 0.823,-4.534c-0.114,-0.549 -2.255,-10.239 -10.616,-22.914c-8.347,-12.675 -22.984,-28.288 -47.657,-40.408c-34.15,-16.787 -55.318,-19.497 -65.394,-19.497c-4.165,0 -6.421,0.463 -6.858,0.566c-1.49,0.343 -2.767,1.211 -3.625,2.463l-80.411,116.698c-1.939,-0.058 -3.907,-0.15 -5.794,-0.15c-47.792,0.009 -77.882,17.863 -78.178,18.036c-0.92,0.547 -1.481,1.534 -1.479,2.604c0.003,1.073 0.567,2.057 1.49,2.601l44.023,25.895c-10.251,10.996 -22.708,22.486 -34.184,28.827c-7.141,3.973 -12.265,6.704 -16.114,9.373c-1.925,1.355 -3.591,2.696 -5.006,4.517c-1.413,1.769 -2.475,4.318 -2.437,6.858c0.009,2.322 0.713,4.312 1.58,6.05c1.752,3.364 4.378,5.213 6.951,6.727c3.904,2.209 8.199,3.544 11.654,4.468c1.326,0.348 2.451,0.606 3.429,0.816l7.742,11.931l-3.731,13.579c-1.061,0.887 -2.419,2.164 -3.812,3.861c-2.791,3.4 -5.783,8.78 -5.78,15.766c-0.012,4.822 1.246,9.062 3.17,12.429c2.897,5.08 7.04,8.17 10.34,10.028c0.621,0.352 1.182,0.616 1.743,0.887l0,102.47c-24.952,8.073 -41.882,20.467 -57.176,34.587c-7.664,7.055 -15.049,14.494 -23.044,22.112l-1.781,-3.654c-7.966,-17.905 -13.51,-37.049 -15.714,-56.75c-2.935,-18.453 -2.926,-37.343 -1.83,-56.089c0.029,-0.633 0.078,-1.267 0.112,-1.899c1.355,-1.11 2.722,-2.187 4.105,-3.193c7.23,-5.305 14.658,-10.772 20.556,-17.773c5.892,-6.951 10.144,-15.806 10.101,-26.555c0,-1.381 -0.066,-2.796 -0.201,-4.228c-0.02,-0.201 -0.129,-0.362 -0.17,-0.559c-0.195,-7.664 -0.242,-15.362 0.386,-22.688c0.143,-2.785 0.302,-5.092 0.768,-8.222l0.707,-8.942l-0.371,-7.474l-0.365,-1.712l-0.495,-1.18l-1.079,-0.967l-1.01,0.679l-0.852,1.191l-0.616,0.906l-2.71,6.358l-3.57,9.666c-0.581,1.876 -1.073,4.241 -1.577,6.484l-0.535,3.131c-0.633,7.859 -0.59,15.46 -0.408,23.067c-0.063,0.46 -0.193,0.909 -0.147,1.393c0.101,1.069 0.149,2.1 0.149,3.095c-0.008,1.554 -0.195,2.97 -0.414,4.373c-0.855,5.489 -3.196,9.989 -6.856,14.408c-3.671,4.39 -8.691,8.51 -14.215,12.652c0.006,-0.046 0.009,-0.098 0.015,-0.143c0.595,-5.979 1.369,-11.945 2.368,-17.877c0.782,-6.324 1.87,-12.624 3.159,-18.861l0.219,-2.532l-0.642,-1.72l-1.456,1.186l-1.464,3.527c-2.926,8.688 -5.225,17.566 -7.368,26.508c-0.975,5.26 -1.838,10.547 -2.609,15.853c-6.738,5.392 -12.808,11.462 -17.437,16.605c-2.719,3.026 -4.94,5.714 -6.522,7.745c-0.794,1.018 -1.427,1.87 -1.916,2.571l-0.679,1.048l-0.132,0.247c-0.359,0.3 -0.754,0.535 -1.044,0.921c-0.875,1.15 -1.686,2.434 -2.517,3.677l-0.075,-0.133l-1.272,-1.064l-0.998,-0.788l-7.448,-4.108l-12.296,-3.924l-4.755,-0.621l-3.021,-0.398l-3.708,-0.396c-0.526,-0.006 -1.099,0.017 -1.643,0.022c-3.717,0.046 -7.799,0.288 -12.005,0.702c5.368,-6.197 11.738,-11.456 18.835,-12.313c2.753,-0.708 5.581,-0.195 8.383,0.46c2.779,0.852 5.642,2.043 8.185,3.953c2.272,1.301 4.424,2.98 6.407,4.833l1.456,1.163l1.085,0.725c0,0 1.729,2.163 1.824,1.6c0.095,-0.569 -0.529,-2.434 -0.529,-2.434l-0.492,-1.577l-0.463,-1.168c-1.341,-2.434 -3.006,-4.672 -4.845,-6.858c-2.445,-2.607 -5.48,-4.765 -8.85,-6.525c0.046,-0.172 0.161,-0.311 0.196,-0.494l-0.003,0c0.006,-0.029 1.407,-7.773 3,-17.785c0.228,-1.422 0.458,-2.889 0.688,-4.385c1.859,-12.095 3.769,-25.869 3.921,-34.161c0.078,-7.043 1.24,-12.376 3.015,-15.196c0.458,-0.736 0.926,-1.323 1.436,-1.817l0.78,0.058l1.447,-0.248c7.846,-1.622 15.306,-3.228 19.135,-1.053c2.399,1.363 3.38,4.2 2.109,9.488l-1.404,12.117c-0.42,4.206 -1.082,8.125 -1.309,12.584c-0.112,3.631 0.172,7.095 0.397,10.587l0.397,2.342l0.452,1.56l0.878,1.134l0.667,-1.162l0.521,-1.842l0.38,-1.392l1.801,-9.332c0.843,-4.518 2.318,-9.333 3.492,-14.017l1.68,-8.936l0.636,-4.378c1.096,-4.327 -1.007,-13.004 -6.559,-16.48c-1.438,-0.897 -3.05,-1.53 -4.963,-1.554c-1.852,-0.241 -3.628,-0.334 -5.351,-0.316c1.951,-1.893 5.173,-4.073 11.841,-4.69l2.08,-0.179l3.079,-0.259c4.433,1.122 6.421,4.442 4.721,11.784l-1.033,9.983l-1.2,10.247l-0.42,8.637l0.104,1.968l0.242,1.341l0.705,1.064l0.823,-0.828l0.759,-1.439l0.547,-1.094l2.624,-7.561l3.473,-11.703l1.41,-7.463l0.621,-3.567c0.219,-5.23 0.886,-11.997 -5.917,-17.556c-1.674,-0.805 -3.335,-1.384 -4.989,-1.841c1.335,-0.984 3.593,-2.172 7.44,-3.139l3.823,-0.952c4.439,1.021 5.075,5.558 4.428,12.773l-0.645,8.102l-0.63,8.233l-0.069,6.922l0.17,1.589l0.282,1.099l0.734,0.897l0.791,-0.633l0.702,-1.134l0.509,-0.863l2.327,-6.081l2.831,-9.46l1.139,-5.949l0.454,-2.855c2.256,-6.622 -2.192,-19.684 -11.623,-21.353c0.236,-1.229 0.518,-2.546 0.906,-3.884c0.512,-1.792 1.214,-3.501 1.85,-4.643c0.837,-1.507 2.445,-2.385 3.429,-2.822c7.034,-2.238 21.284,4.172 32.334,4.146c0.21,0.966 0.415,2.111 -0.04,2.879c-1.229,2.08 -4.724,3.214 -8.599,4.157c-3.873,0.947 -6.433,0.483 -9.666,0.771l-2.164,0.167l-1.551,0.305l-1.401,0.754l0.803,1.202l1.731,1.045l1.384,0.748c3.251,0.816 6.749,1.792 10.176,1.663c4.712,0.394 11.77,-1.119 16.525,-5.993c2.728,-3.418 3.674,-7.63 3.222,-12.814c-0.348,-4.005 -5.923,-7.314 -8.453,-6.531c-0.44,0.072 -0.869,0.04 -1.306,0.081l1.697,-1.991c1.98,-3.326 3.714,-6.827 4.977,-10.613c1.453,-4.81 2.301,-9.969 1.703,-15.242c-1.133,-5.935 -2.155,-12.071 -8.66,-17.345c-2.017,-0.633 -4.626,-1.683 -6.384,-0.967c-5.958,1.953 -8.32,6.024 -10.265,9.603c-2.106,3.691 -2.969,7.65 -3.921,11.522c-0.216,3.317 -0.773,6.519 -0.282,9.793l0.365,2.164l0.406,1.418l0.797,0.987l0.639,-1.073l0.492,-1.66l0.351,-1.237c0.262,-2.799 1.223,-5.466 2.132,-8.072c1.283,-3.921 3.062,-7.8 5.452,-10.838c1.096,-2.132 2.983,-3.518 4.267,-4.462c0.704,-0.04 1.536,-1.001 1.729,-0.256c1.663,0.152 4.922,6.556 5.475,11.481c0.915,4.885 0.552,10.193 -1.107,15.234c-0.688,3.32 -1.922,6.64 -3.438,9.79l-0.794,1.758c-8.778,-0.849 -17.642,-5.823 -31.106,-3.72c0,0 -3.59,0.88 -5.48,1.824c-0.409,0.205 -0.578,0.354 -0.636,0.478c-2.667,1.634 -4.35,3.898 -5.576,6.091c-2.097,3.884 -3.136,8.049 -3.823,11.401c-0.135,0.682 -0.242,1.298 -0.342,1.896c-5.438,1.939 -9.192,4.586 -11.476,7.486c-0.892,1.125 -1.485,2.215 -1.959,3.266c-7.474,1.479 -12.831,4.83 -15.961,8.363c-1.427,1.588 -2.356,3.072 -3.087,4.419c-2.474,0.408 -4.807,1.139 -6.907,2.29c-4.845,2.623 -8.039,7.135 -9.785,12.049c-1.784,4.954 -2.425,10.489 -2.535,16.548c-0.095,6.801 -1.939,20.702 -3.78,32.515c-0.915,5.933 -1.827,11.41 -2.506,15.393c-0.659,3.866 -1.09,6.26 -1.119,6.415l-2.917,0.236c-11.816,2.451 -19.785,10.909 -26.137,18.941l-1.223,2.21l-0.173,0.868c-3.769,0.581 -7.399,1.237 -10.613,1.934l-0.026,0.143c-2.736,0.519 -4.876,2.768 -4.957,5.668c0,0 -0.029,1.036 -0.104,2.975c-0.259,6.801 -1.07,24.472 -3.079,44.817c-1.271,12.969 -3.055,27.043 -5.452,40.019c-2.848,11.139 -8.323,32.055 -14.92,54.65c-4.471,15.317 -9.482,31.388 -14.5,45.681l6.418,0l6.384,0c5.886,-17.147 11.597,-36.135 16.485,-53.339c2.089,-7.364 4.019,-14.373 5.74,-20.742c0.017,-0.075 0.034,-0.139 0.054,-0.207c1.479,-5.483 2.794,-10.461 3.921,-14.782c0.826,-3.164 1.551,-5.973 2.155,-8.337c0.409,-1.6 0.769,-3.026 1.064,-4.2l29.417,-2.365l11.044,-0.886l0.135,-0.012c-0.333,1.611 -0.733,3.279 -1.016,4.839c-0.463,2.549 -0.794,4.954 -1.13,7.371c-1.209,8.584 -1.758,16.393 -1.758,23.125c0,11.15 1.254,19.563 2.451,25.138c-0.256,-0.023 -0.518,-0.023 -0.774,-0.04l-4.157,-0.018l-4.146,0.121l-3.596,0.523l-0.935,0.34l-0.734,0.426l-0.826,0.967l0.058,0.932l0.412,0.806l0.342,0.587l3.038,2.618l5.175,2.722l3.312,0.897l1.583,0.392c2.635,0.189 5.253,0.281 7.865,0.316l0.812,0.046c0.106,0.006 0.498,0.034 1.151,0.034c0.685,0 1.732,-0.04 2.966,-0.12c0.259,-0.006 0.521,0.005 0.78,-0.006l0.161,-0.075c7.624,-0.615 23.125,-3.372 40.812,-15.155c12.293,-8.199 22.42,-16.444 31.413,-24.472c2.581,4.091 5.377,8.05 8.274,11.934c-7.546,9.644 -13.49,19.305 -18.133,28.424c-6.168,12.101 -10.081,23.223 -12.584,32.199l6.283,0l2.238,0l4.074,0c2.535,-8.378 6.344,-18.47 12.109,-29.281c3.691,-6.911 8.173,-14.103 13.587,-21.318c9.129,8.878 17.552,18.487 28.401,25.185c8.461,6.416 17.622,11.514 27.351,15.559l6.453,2.762l4.39,1.651l3.453,0.587l-2.753,-2.376l-4.681,-3.153l-3.556,-2.353c-8.263,-4.821 -16.543,-9.511 -23.499,-16.076c-11.467,-8.148 -20.602,-18.769 -29.561,-29.27c13.818,-16.324 32.826,-32.279 59.136,-44.841c7.397,-3.205 15.098,-5.8 22.967,-7.549c3.936,-1.15 7.897,-2.256 11.977,-2.744c4.031,-0.702 8.061,-1.888 12.169,-2.222l10.225,-1.605l2.325,-0.627l1.583,-0.65l1.208,-1.18l-1.145,-0.862l-1.881,-0.628l-1.45,-0.437l-9.971,-1.525c-5.109,-0.73 -10.182,-0.08 -15.363,-0.172c-3.147,0.126 -6.257,0.517 -9.321,1.179l-4.39,0.811c-1.881,0.443 -3.731,0.995 -5.593,1.514l0,-18.85l0,-6.243l0,-6.243l0,-92.805c1.988,-3.533 7.357,-11.611 17.492,-19.667c11.542,-9.177 29.235,-18.504 55.824,-21.605c5.443,-0.627 10.305,-0.921 14.896,-1.07c1.651,-0.052 3.395,-0.155 4.937,-0.155c20.467,0.012 31.71,4.511 37.734,8.47c3.026,1.991 4.775,3.866 5.754,5.138c0.482,0.639 0.782,1.122 0.932,1.393l0.121,0.23l0.023,-0.012c0.235,0.553 0.58,1.018 0.949,1.462c0.022,0.316 0.062,0.599 0.062,0.943c-0.045,2.808 -0.765,6.611 -5.241,11.479l-1.042,1.121l-0.385,1.491c-0.771,3.009 -1.387,4.471 -1.997,6.933c-0.604,2.463 -0.874,5.214 -0.874,9.546c0,12.158 0,54.288 0,83.771c0,2.111 0,4.143 0,6.104c0,2.129 0,4.172 0,6.088c0,10.823 0,18.032 0,18.032l0,2.216l1.421,1.674l-0.006,0.006c0.322,0.368 12.509,15.397 12.485,40.68c0,8.568 -1.381,18.344 -5.115,29.293c-5.172,15.231 -14.12,32.613 -25.587,50.203l7.215,0l7.077,0c9.897,-15.996 17.78,-31.802 22.74,-46.29c4.16,-12.186 5.766,-23.338 5.766,-33.206c0,-13.267 -2.889,-24.154 -6.151,-32.204c3.216,3.412 6.283,6.945 9.2,10.57c5.34,6.513 10.277,13.309 14.351,20.507c2.646,4.274 5.028,8.705 7.037,13.233l2.681,6.49c7.256,18.517 7.67,39.483 -1.415,57.326l-1.542,3.573l12.273,0c10.178,-20.847 9.436,-46.693 0.138,-67.43c-3.171,-7.123 -7.123,-13.81 -11.6,-20.023c-4.54,-6.197 -9.603,-11.905 -14.989,-17.222c-4.586,-4.24 -9.465,-8.107 -14.437,-11.778l-3.567,-2.192l-1.801,-0.852c-1.605,-2.969 -3.061,-5.19 -4.08,-6.605c0,-2.491 0,-7.157 0,-13.291c2.854,0.857 5.922,1.904 9.247,3.285c15.167,6.323 34.742,18.706 53.718,43.506c28.437,37.17 56.895,68.712 89.939,92.603l10.628,0l10.748,0c-1.059,-0.708 -2.071,-1.404 -3.223,-2.147c-36.336,-23.462 -67.155,-56.835 -98.491,-97.808zm-203.897,-172.939c-5.757,4.598 -10.127,9.148 -13.464,13.188l-0.998,-0.265l0.008,0.006l-0.008,-0.006c-0.386,-0.098 -3.461,-1.128 -6.016,-3.285c-1.294,-1.07 -2.462,-2.382 -3.303,-3.982c-0.84,-1.605 -1.415,-3.521 -1.424,-6.146c0.003,-3.452 1.43,-6.104 3.055,-8.119c0.803,-0.983 1.634,-1.761 2.221,-2.249l0.667,-0.519l0.092,-0.062l1.968,-1.255l5.015,-18.269l1.994,-0.034l2.314,-0.403l2.301,-0.759l1.884,-1.249l0.42,-0.483l0.276,-0.506l0.19,-0.921l-0.224,-0.668l-0.354,-0.491l-0.268,-0.343l-1.795,-1.186l-2.719,-1.26l-1.648,-0.359l-0.78,-0.155l-2.888,0.034l-5.556,-8.559l3.11,-1.03l4.336,-2.558l2.713,-3.386l0.403,-0.953l0.118,-0.817l-0.351,-1.151l-0.852,-0.501l-0.895,-0.213l-0.642,-0.138l-3.323,0.15l-4.618,-0.046l-2.658,0.075l-1.7,0.224c-3.49,0.463 -6.721,0.412 -10.311,-0.04l-0.109,0.04c-0.69,-0.201 -1.378,-0.403 -2.077,-0.642c-1.945,-0.665 -3.852,-1.484 -5.184,-2.287c-0.667,-0.397 -1.186,-0.786 -1.49,-1.073l-0.313,-0.333l-0.055,-0.069l-0.15,-0.362c0.561,-0.624 2.247,-1.942 5.029,-3.596c2.931,-1.77 7.003,-3.99 12.158,-6.856c14.21,-7.938 27.941,-21.094 38.971,-33.125c0.705,-0.765 1.401,-1.528 2.08,-2.284c0.351,-0.389 0.728,-0.791 1.07,-1.177c0.342,-0.386 0.647,-0.745 0.981,-1.128c7.169,-8.145 12.739,-15.265 15.754,-19.252c7.992,2.342 27.769,8.95 50.335,22.469c2.02,1.208 4.062,2.488 6.116,3.809c-0.817,0.506 -1.634,1.05 -2.445,1.66c-6.001,4.514 -11.197,11.856 -14.391,22.679c-0.345,-0.012 -0.645,-0.049 -1.019,-0.049c-0.311,0 -0.685,0.049 -1.013,0.06c-1.496,0.049 -3.136,0.253 -4.885,0.636c-1.266,0.276 -2.561,0.69 -3.884,1.223c-1.83,0.736 -3.671,1.645 -5.46,3.018c-4.258,3.237 -7.67,8.467 -9.632,15.564c-4.344,0.135 -10.662,1.13 -16.824,5.311c-6.036,4.054 -11.37,11.2 -14.06,21.925c-6.827,0.927 -13.237,3.931 -17.872,8.482c-2.017,1.594 -2.992,3.861 -4.491,5.748c-1.306,2.049 -2.485,4.092 -3.127,6.33l-1.18,5.667l0,1.341l0.219,0.978l0.814,0.966l1.073,-0.184l1.013,-0.569l0.733,-0.443l3.544,-3.44c1.427,-1.922 3.245,-3.418 5.109,-4.701l2.825,-2.768c0,0 5.789,-5.726 16.37,-6.675l-0.023,-0.052c2.906,0.052 5.523,-1.888 6.076,-4.839c1.974,-10.38 5.927,-15.087 9.782,-17.772c3.873,-2.661 8.269,-3.245 11.088,-3.239c0.875,0 1.582,0.055 2.031,0.104l0.483,0.064l0.069,0.012l6.145,1.188l0.932,-6.231c1.231,-7.843 3.844,-11.275 6.26,-13.171c2.434,-1.884 5.363,-2.434 7.883,-2.437c1.203,0 2.256,0.129 2.963,0.253l0.777,0.158l0.144,0.035l6.237,1.85l0.144,-0.679l0.662,-3.119l0.552,-2.604c0.041,-0.181 0.086,-0.331 0.127,-0.506c2.566,-11.476 6.904,-17.265 11.105,-20.458c2.232,-1.692 4.562,-2.693 6.807,-3.289c2.359,1.735 4.718,3.544 7.077,5.435c6.508,5.205 12.975,11.004 19.241,17.469c-2.157,1.551 -4.551,3.047 -7.197,4.428c-1.898,0.996 -3.447,1.951 -6.284,2.992l-7.44,2.819c0,0 -1.335,0.48 -1.254,1.053c0.282,1.985 9.165,2.929 9.165,2.929c3.05,0.506 6.105,0.219 9.298,-0.285l5.668,-1.419l2.561,-1.251c1.295,-0.624 2.469,-1.479 3.653,-2.304c9.241,10.794 17.78,23.205 24.989,37.401c0.748,1.473 1.496,2.939 2.215,4.453l0.018,0.351c0,0.006 0,0.012 0,0.018c0,0.696 -0.207,1.824 -0.65,3.13c-0.144,0.432 -0.213,0.806 -0.443,1.295c-0.949,1.962 -2.681,4.397 -6.26,7.043c-4.068,2.957 -8.245,3.78 -11.945,3.792c-2.336,0 -4.418,-0.357 -5.857,-0.708c-0.719,-0.179 -1.277,-0.356 -1.628,-0.472l-0.368,-0.127l-0.012,-0.006l-0.035,-0.012l0.035,0.012l-0.73,-0.299c-1.721,-1.934 -4.08,-4.103 -7.302,-6.214c-1.773,-1.169 -3.85,-2.302 -6.14,-3.378c1.887,-0.979 3.734,-2.049 5.501,-3.303c0,0 5.196,-4.644 6.709,-6.761c1.03,-1.444 2.308,-3.487 3.159,-5.754c0.367,-0.984 0.656,-1.997 0.788,-3.05c0.011,-0.092 0.046,-0.179 0.058,-0.27c0.172,-1.032 0.253,-2.042 0.275,-3.041c0.035,-1.723 -0.166,-3.406 -0.828,-5.064l-0.771,-1.648l-0.742,-0.98c0,0 -0.707,-1.603 -1.369,-1.226c-0.662,0.377 -0.615,1.723 -0.615,1.723s-0.156,1.539 -1.209,3.938c-0.351,0.797 -0.84,1.712 -1.421,2.676c-0.472,0.791 -1.047,1.629 -1.709,2.503c-0.977,1.298 -2.123,2.647 -3.597,4.048l-3.958,2.912l-1.997,1.185c-5.374,3.919 -12.359,5.806 -18.838,6.277c-5.219,-0.771 -11.03,-1.254 -17.682,-1.248c-6.358,0 -13.395,0.402 -21.226,1.311c-1.174,0.139 -2.244,0.352 -3.383,0.513c-26.932,3.722 -45.975,13.579 -58.587,23.642zm112.301,-96.639l-0.023,-0.006l0.023,0.006zm20.139,-41.955c-1.416,-0.719 -2.791,-1.461 -4.252,-2.155c-0.736,-0.348 -1.445,-0.622 -2.176,-0.958l68.5,-109.261c3.056,1.539 5.904,3.133 8.603,4.758c-18.413,27.867 -50.686,76.795 -70.675,107.616zm-17.635,-8.015c-12.912,-5.213 -25.3,-8.884 -37.078,-11.378l73.725,-109.373c8.239,1.933 18.827,5.328 32.038,11.194l-68.685,109.557zm-244.463,269.483c1.795,18.735 7.062,36.998 13.57,54.76l5.829,11.813c-9.203,8.349 -19.465,16.853 -32.135,25.294c-15.024,10.017 -28.002,12.485 -34.351,13.096c-1.107,-4.563 -2.595,-12.843 -2.595,-24.482c0,-10.761 1.271,-24.374 5.316,-40.554l2.042,-8.171l-0.112,0.012c1.364,-5.368 2.946,-11.197 4.773,-17.216c5.296,-17.555 12.73,-36.503 21.143,-47.492c0.072,-0.093 0.083,-0.213 0.149,-0.306c0.728,-0.546 1.332,-1.214 1.755,-2.025l0.04,0.023l0.034,-0.058c0.282,-0.449 1.41,-1.985 2.981,-3.907c2.558,-3.158 6.473,-7.601 11.05,-12.135c-0.098,1.14 -0.225,2.272 -0.308,3.412c-0.916,15.905 -1.261,31.993 0.819,47.936zm-92.984,2.181c1.467,-16.968 2.104,-30.99 2.328,-36.923c9.632,-2.025 19.575,-2.871 29.331,-2.664c1.447,0.058 2.917,0.035 4.381,0.035c1.911,-0.006 3.815,0.017 5.685,0.259l10.061,0.921l8.295,1.3l1.997,0.087l1.102,-0.109c-4.211,6.616 -7.897,14.264 -11.177,22.325c-6.234,15.408 -10.981,32.296 -14.183,45.381l-12.106,0.972l-29.549,2.383c1.666,-11.648 2.915,-23.368 3.835,-33.967zm78.731,-38.356l-1.14,-0.38l1.14,0.38zm-0.311,0.83l-0.872,-0.472l0.872,0.472zm0.228,-0.414c-0.021,0.052 -0.052,0.144 -0.069,0.178c0.017,-0.035 0.048,-0.127 0.069,-0.178zm-36.894,140.941l-0.038,0.679l0.038,-0.679zm84.248,-34.702c9.27,-8.711 17.434,-17.037 25.602,-24.534c13.996,-12.809 28.064,-23.338 48.991,-30.731l0,18.044c-29.854,13.078 -51.67,30.427 -67.49,48.407c-2.517,-3.642 -4.957,-7.331 -7.103,-11.186z" />
   <path d="m414.303,483.799c0.023,-25.282 -12.163,-40.311 -12.485,-40.68l0.006,-0.006l-1.421,-1.674l0,-2.216c0,0 0,-7.209 0,-18.032c0,-1.916 0,-3.959 0,-6.088c0,-1.962 0,-3.993 0,-6.104c0,-29.483 0,-71.613 0,-83.771c0,-4.332 0.27,-7.083 0.874,-9.546c0.61,-2.462 1.226,-3.924 1.997,-6.933l0.385,-1.491l1.042,-1.121c4.477,-4.868 5.196,-8.672 5.241,-11.479c0,-0.345 -0.04,-0.627 -0.062,-0.943c-0.369,-0.443 -0.714,-0.909 -0.949,-1.462l-0.023,0.012l-0.121,-0.23c-0.149,-0.271 -0.449,-0.754 -0.932,-1.393c-0.978,-1.271 -2.727,-3.146 -5.754,-5.138c-6.024,-3.959 -17.268,-8.458 -37.734,-8.47c-1.542,0 -3.286,0.103 -4.937,0.155c2.244,2.209 0.138,6.329 -22.716,13.435c-30.122,9.367 -32.906,23.977 -32.745,29.753l0.201,-0.173l10.478,-7.117c5.955,-2.808 11.698,-6.226 18.05,-8.188c6.577,-2.601 14.034,-4.552 20.432,-5.346c6.416,-0.8 14.851,-0.886 14.851,-0.886c5.104,0.31 10.19,0.109 15.093,1.789l9.615,2.716l1.369,0.517l1.784,0.702l1.03,0.702l-1.312,0.46l-1.628,0.075l-2.377,-0.069l-10.265,-0.995c-4.062,-0.978 -8.269,-0.109 -12.388,-0.017c-4.108,0.363 -6.899,0.161 -12.308,1.048l-4.16,0.788c-6.047,0.76 -11.916,2.29 -17.659,4.396c-5.098,1.237 -9.85,3.458 -14.713,5.467c-3.936,1.387 -7.457,3.602 -11.237,5.392l-0.535,0.275c8.827,-1.968 30.657,-6.019 48.408,-2.595c7.641,1.468 9.442,3.229 8.533,4.92l4.2,-1.03l9.782,-2.566l7.687,-2.227l5.789,-1.363l0.863,-0.069l1.145,0.104l-0.54,1.11l-0.392,0.495l-3.567,2.376l-7.169,3.706l-11.79,4.407l-12.895,3.521l-3.441,0.691l-3.941,0.477l3.119,74.185l0.253,6.054l0.253,6.053l1.513,35.956c0,0 13.107,50.899 -36.232,107.178l63.736,0c11.467,-17.59 20.415,-34.973 25.587,-50.203c3.731,-10.95 5.112,-20.726 5.112,-29.294z" fill="#CCCCCC" />
   <path d="m379.602,225.665c-0.299,0.161 -0.546,0.299 -0.829,0.455c-1.11,0.607 -2.135,1.171 -3.084,1.697c-1.133,0.63 -2.152,1.197 -3.061,1.706c-3.913,2.198 -5.794,3.323 -5.794,3.323s9.592,14.216 -9.58,19.955c-7.986,2.391 -11.174,0 -11.174,0s-1.22,7.315 -6.324,13.962c1.139,-0.161 2.209,-0.374 3.383,-0.513c7.831,-0.909 14.868,-1.311 21.226,-1.311c6.651,-0.006 12.463,0.477 17.682,1.248c6.479,-0.472 13.464,-2.358 18.838,-6.277l1.997,-1.185l3.958,-2.912c1.474,-1.4 2.619,-2.75 3.597,-4.048c0.662,-0.874 1.237,-1.712 1.709,-2.503c0.581,-0.964 1.07,-1.879 1.421,-2.676c1.053,-2.399 1.209,-3.938 1.209,-3.938s-0.047,-1.346 0.615,-1.723c0.662,-0.377 1.369,1.226 1.369,1.226l0.742,0.98l0.771,1.648c0.662,1.657 0.863,3.341 0.828,5.064c-0.022,0.999 -0.104,2.009 -0.275,3.041c-0.012,0.092 -0.047,0.179 -0.058,0.27c-0.132,1.053 -0.421,2.065 -0.788,3.05c-0.852,2.267 -2.129,4.31 -3.159,5.754c-1.513,2.117 -6.709,6.761 -6.709,6.761c-1.767,1.254 -3.614,2.324 -5.501,3.303c2.29,1.076 4.367,2.209 6.14,3.378c3.222,2.111 5.581,4.28 7.302,6.214l0.73,0.299l0.012,0.006l0.368,0.127c0.351,0.115 0.909,0.293 1.628,0.472c1.44,0.351 3.522,0.708 5.857,0.708c3.7,-0.012 7.877,-0.835 11.945,-3.792c3.579,-2.646 5.31,-5.081 6.26,-7.043c0.231,-0.489 0.3,-0.863 0.443,-1.295c0.443,-1.306 0.65,-2.434 0.65,-3.13c0,-0.006 0,-0.012 0,-0.018l-0.018,-0.351c-0.719,-1.514 -1.467,-2.98 -2.215,-4.453c-7.209,-14.195 -15.748,-26.606 -24.989,-37.401c-1.185,0.826 -2.358,1.68 -3.653,2.304l-2.561,1.251l-5.668,1.419c-3.193,0.503 -6.249,0.791 -9.298,0.285c0,0 -8.884,-0.943 -9.165,-2.929c-0.081,-0.572 1.254,-1.053 1.254,-1.053l7.44,-2.819c2.837,-1.042 4.385,-1.997 6.284,-2.992c2.647,-1.381 5.04,-2.877 7.197,-4.428c-6.266,-6.464 -12.733,-12.264 -19.241,-17.469c2.993,8.059 3.666,19.051 -9.711,26.353z" fill="#CCCCCC" />
   <path d="m137.173,377.52c-0.021,0.052 -0.052,0.144 -0.069,0.178" stroke-linejoin="round" stroke-linecap="round" stroke-width="0" stroke="#000000" fill="none" />
   <path d="m293.305,204.327l0.354,0.035l0,0.003l0.126,0.895l0.362,0.765l0.368,0.469l0.512,0.218c4.416,1.217 9.227,1.283 13.772,0.337l4.264,-1.562l3.792,-2.388l2.468,-2.793l0.391,-0.783l0.167,-0.647l-0.121,-0.446l-0.092,-0.345l-0.65,-0.149l-0.086,0.006l-0.61,0.052l-0.524,0.049l-2.94,0.797l-4.275,0.84l-2.468,0.492l-1.18,0.063c-1.577,0.316 -3.188,0.44 -4.804,0.405l1.439,-1.447l1.076,-1.28c1.26,-1.738 2.031,-3.634 3.032,-5.452l0.305,-0.958l0.949,-2.952l0.495,-1.548l0.15,-1.582l0.196,-2.074l-0.213,-1.876l-0.225,-0.339l-0.662,-0.463l-0.713,-0.181l-0.449,0.219l-1.934,2.123l-0.109,0.176l-1.611,2.56l-0.144,0.225l-1.49,2.325l-0.829,1.286l-2.604,4.028l-0.633,0.883l-1.686,2.67l-1.772,2.644l-1.562,2.235l-0.299,0.682l-0.149,0.599l0.086,0.86l0.53,0.324z" />
   <path d="m317.528,169.268l0.415,0.492l2.906,2.287c1.548,0.826 2.716,2.296 3.936,3.53l2.359,1.994l1.231,1.395c1.795,1.519 3.447,3.199 4.862,5.15c1.646,1.576 2.814,3.567 4.217,5.403l2.802,3.596l1.698,1.87l0.426,0.181l0.852,-0.072l0.696,-0.423l0.179,-0.595c0,0 -0.909,-5.501 -1.899,-8.66c-0.984,-3.162 -1.749,-3.985 -3.003,-5.809c-1.416,-2.141 -3.032,-4.154 -4.96,-5.955l-1.323,-1.26c-1.277,-1.246 -3.009,-1.959 -4.511,-2.906c-1.64,-0.745 -3.119,-1.738 -4.937,-2.048l-4.407,-0.526l-1.001,0.078l-0.696,0.213l-0.628,0.639l0.259,0.748l0.527,0.678z" />
   <path d="m150.522,143.065l-0.225,0.038l-0.509,0.086l-0.521,0.656l-2.96,4.96l-3.769,6.766l-5.388,8.104c-2.008,3.208 -4.462,6.047 -6.847,8.93l-1.738,1.939c-1.735,1.974 -3.4,3.496 -5.199,5.877c-1.381,2.94 -4.267,5.369 -3.783,8.732c-0.063,2.69 0.294,5.129 1.479,7.29l0.785,1.404l0.8,0.8c0,0 0.155,1.007 0.388,1.295c0.083,0.098 0.173,0.118 0.271,-0.029c0.377,-0.567 0.389,-1.841 0.389,-1.841l-0.138,-1.183l0.023,-0.92c-0.371,-1.939 -0.653,-7.109 4.183,-11.752l4.252,-3.97l2.555,-2.425c2.721,-3.527 5.59,-6.954 7.828,-10.783c2.224,-3.539 3.973,-7.331 5.673,-11.105l2.417,-7.595l0.716,-4.163l-0.115,-0.616l-0.567,-0.495z" />
   <path d="m112.339,187.758l0.043,-0.676l-0.319,-0.719l-0.688,0.069l-0.719,0.348l-0.532,0.268l-2.848,2.264l-4.14,3.308l-2.422,2.017l-1.444,1.168c-1.908,1.367 -3.59,3.09 -5.67,4.197l-5.699,3.482l-3.766,2.229l-0.552,0.339l-1.47,0.903l-0.236,0.342l-0.075,0.714l0.285,0.621l2.857,0.069l6.128,-0.99l5.785,-2.391c2.23,-1.056 4.054,-2.699 6.099,-4.051l1.324,-1.079l3.334,-3.711l2.816,-4.077l1.579,-3.524l0.095,-0.213l0.235,-0.907z" />
   <path d="m115.722,168.293l-1.755,4.361l-0.967,3.608l-0.086,0.854l0.055,0.616l0.386,0.607l0.627,-0.158l0.636,-0.443l0.475,-0.345l2.578,-2.776l3.82,-4.735l1.836,-3.34l0.728,-1.703c0.866,-2.127 1.539,-4.422 2.172,-6.755c0.903,-3.331 1.643,-6.807 2.065,-10.553l-0.21,-1.594l-0.383,-0.633l-0.647,-0.849l-0.699,-0.561l-1.367,-0.383l-1.237,0.121l-0.941,0.273l-0.97,0.59l-0.768,0.823l-0.434,0.679l-0.124,0.771c-0.158,3.294 -0.587,6.407 -1.214,9.382c-0.544,2.592 -1.234,5.083 -2.069,7.463c-0.35,1.633 -0.681,3.244 -1.507,4.68z" />
   <path d="m298.118,326.632l2.529,-0.782l7.641,-3.937l0.535,-0.275c3.78,-1.79 7.302,-4.005 11.237,-5.392c4.862,-2.009 9.615,-4.229 14.713,-5.467c5.743,-2.105 11.611,-3.636 17.659,-4.396l4.16,-0.788c5.409,-0.887 8.199,-0.685 12.308,-1.048c4.12,-0.092 8.326,-0.961 12.388,0.017l10.265,0.995l2.377,0.069l1.628,-0.075l1.312,-0.46l-1.03,-0.702l-1.784,-0.702l-1.369,-0.517l-9.615,-2.716c-4.902,-1.68 -9.989,-1.479 -15.093,-1.789c0,0 -8.435,0.086 -14.851,0.886c-6.398,0.794 -13.855,2.745 -20.432,5.346c-6.352,1.962 -12.095,5.38 -18.05,8.188l-10.478,7.117l-0.201,0.173l-4.853,4.194l-0.996,2.061z" />
   <path d="m355.337,326.644l-7.819,1.743c-2.595,0.581 -5.196,1.375 -7.854,1.68l-6.507,1.496l-1.45,0.489l-0.984,0.46c0,0 -1.697,0.26 -1.697,0.921c0,0.662 3.953,0.708 3.953,0.708l6.381,0.351c3.245,0.155 6.438,-0.184 9.672,-0.385l1.927,-0.236l3.941,-0.477l3.441,-0.691l12.895,-3.521l11.79,-4.407l7.169,-3.706l3.567,-2.376l0.392,-0.495l0.54,-1.11l-1.145,-0.104l-0.863,0.069l-5.789,1.363l-7.687,2.227l-9.782,2.566l-4.2,1.03l-7.221,1.767l-2.67,0.638z" />
  </g>
</svg>