<svg width="18" height="22" xmlns="http://www.w3.org/2000/svg" xmlns:svg="http://www.w3.org/2000/svg">
 <g>
   <path stroke="null" fill="#333" d="m16.97734,13.43629c-0.68299,1.80395 -1.94055,3.1967 -3.74309,3.93461l0,-3.93461l2.15883,-1.94055l-2.15883,-1.91238l0,-2.70663c1.96731,-0.1366 3.33329,-1.58567 3.33329,-3.36146c0,-2.32218 -2.21234,-3.14177 -3.46989,-3.14177c-0.2732,0 -0.57456,0 -1.01111,0.10984l0,0.10984c0.16336,0 0.4098,-0.02676 0.49147,-0.02676c0.87451,0 1.53075,0.4098 1.53075,1.20263c0,0.60132 -0.49147,1.20263 -1.36599,1.20263c-2.15883,0 -4.70069,-1.74903 -7.46083,-1.74903c-2.45878,0 -4.1543,1.83071 -4.1543,3.68958c0,1.83071 1.06603,2.43202 2.18558,2.84182l0.02816,-0.11125c-0.35488,-0.21968 -0.59991,-0.60132 -0.59991,-1.20263c0,-0.81959 0.76467,-1.50259 1.72086,-1.50259c2.32218,0 6.06668,1.94055 8.38886,1.94055l0.21828,0l0,2.73198l-2.15742,1.88563l2.15883,1.94055l0,3.98953c-0.90127,0.32812 -1.83071,0.46472 -2.7869,0.46472c-3.60649,0 -5.90192,-2.18558 -5.90192,-5.82024c0,-0.87451 0.10984,-1.72227 0.35488,-2.54187l1.80395,-0.79284l0,8.03399l3.66141,-1.61243l0,-8.22551l-5.38509,2.40527c0.5464,-1.58427 1.66735,-2.73198 3.00658,-3.38822l-0.02676,-0.08309c-3.6079,0.79284 -7.10455,3.52481 -7.10455,7.62419c-0.00141,4.72745 3.98812,8.00723 8.63389,8.00723c4.91897,0 7.70587,-3.27978 7.73403,-8.06074l-0.08309,0z"/>
  </g>
</svg>