<svg width='200' height='200' fill="#000000" xmlns="http://www.w3.org/2000/svg" xmlns:xlink="http://www.w3.org/1999/xlink" version="1.1" x="0px" y="0px" viewBox="0 0 100 100" enable-background="new 0 0 100 100" xml:space="preserve"><path d="M98.492,40.124c-0.126-0.653-0.506-1.229-1.057-1.601L79.207,26.225V13.992c0-1.381-1.119-2.5-2.5-2.5H58.122L43.806,1.647  c-1.138-0.781-2.694-0.494-3.477,0.644l-6.327,9.201H11.6c-1.381,0-2.5,1.119-2.5,2.5v33.713L2.03,57.988  c-0.782,1.137-0.494,2.693,0.644,3.476L9.1,65.885v15.699c0,1.381,1.119,2.5,2.5,2.5h23.971l20.75,14.269  c0.42,0.289,0.915,0.44,1.417,0.44c0.151,0,0.304-0.014,0.455-0.042c0.652-0.12,1.229-0.495,1.604-1.042l9.368-13.625h7.542  c1.381,0,2.5-1.119,2.5-2.5V69.74c0.03-0.04,0.069-0.069,0.098-0.111l18.8-27.627C98.478,41.452,98.617,40.776,98.492,40.124z   M43.033,7.184l6.265,4.308h-9.227L43.033,7.184z M7.566,58.761L9.1,56.529v3.287L7.566,58.761z M57.094,92.816l-12.7-8.732h18.705  L57.094,92.816z M74.207,79.084H14.1V16.492h60.107V79.084z M79.207,60.885V32.256l13.352,9.008L79.207,60.885z"/><path d="M17.525,22.797v36.881c0,1.381,1.119,2.5,2.5,2.5h48.26c1.381,0,2.5-1.119,2.5-2.5V22.797c0-1.381-1.119-2.5-2.5-2.5h-48.26  C18.645,20.297,17.525,21.416,17.525,22.797z M22.525,25.297h43.26v31.881h-43.26V25.297z"/></svg>